# xmcd CD database file
#
# Track frame offsets:
#	150
#	19185
#	55794
#	94287
#	120432
#	150906
#	181308
#	226170
#	265024
#	306310
#
# Disc length: 4250 seconds
#
# Revision: 3
# Processed by: cddbd v1.5.2PL0 Copyright (c) Steve Scherf et al.
# Submitted via: CDex 1.70beta2
#
DISCID=7110980a
DTITLE=Marcin Wasilewski Trio - January
DYEAR=2008
DGENRE=Jazz
TTITLE0=The First Touch
TTITLE1=Vignette
TTITLE2=Cinema Paradiso
TTITLE3=Diamonds and Pearls
TTITLE4=Balladyna
TTITLE5=King Korn
TTITLE6=The Cat
TTITLE7=January
TTITLE8=The Young And Cinema
TTITLE9=New York 2007
EXTD=YEAR: 2008
EXTT0=
EXTT1=
EXTT2=
EXTT3=
EXTT4=
EXTT5=
EXTT6=
EXTT7=
EXTT8=
EXTT9=
PLAYORDER=
